<?xml version="1.0" encoding="UTF-8"?>
<svg height="128px" viewBox="0 0 128 128" width="128px" xmlns="http://www.w3.org/2000/svg" xmlns:xlink="http://www.w3.org/1999/xlink">
    <linearGradient id="a" gradientUnits="userSpaceOnUse" x1="216.102522" x2="296.102522" y1="81" y2="81">
        <stop offset="0" stop-color="#c0bfbc"/>
        <stop offset="0.895452" stop-color="#c0bfbc"/>
        <stop offset="0.941856" stop-color="#deddda"/>
        <stop offset="1" stop-color="#9a9996"/>
    </linearGradient>
    <filter id="b" height="100%" width="100%" x="0%" y="0%">
        <feColorMatrix in="SourceGraphic" type="matrix" values="0 0 0 0 1 0 0 0 0 1 0 0 0 0 1 0 0 0 1 0"/>
    </filter>
    <mask id="c">
        <g filter="url(#b)">
            <rect fill-opacity="0.8" height="128" width="128"/>
        </g>
    </mask>
    <clipPath id="d">
        <rect height="152" width="192"/>
    </clipPath>
    <mask id="e">
        <g filter="url(#b)">
            <rect fill-opacity="0.1" height="128" width="128"/>
        </g>
    </mask>
    <clipPath id="f">
        <rect height="152" width="192"/>
    </clipPath>
    <path d="m 24 16 v 104 h 72 c 4.433594 0 8 -3.566406 8 -8 v -96 z m 0 0" fill="url(#a)"/>
    <path d="m 24 8 v 104 h 72 c 4.433594 0 8 -3.566406 8 -8 v -96 z m 0 0" fill="#deddda"/>
    <path d="m 34 86 h 20 c 1.105469 0 2 0.894531 2 2 v 4 c 0 1.105469 -0.894531 2 -2 2 h -20 c -1.105469 0 -2 -0.894531 -2 -2 v -4 c 0 -1.105469 0.894531 -2 2 -2 z m 0 0" fill="#241f31"/>
    <path d="m 48 80 v 20 c 0 1.105469 -0.894531 2 -2 2 h -4 c -1.105469 0 -2 -0.894531 -2 -2 v -20 c 0 -1.105469 0.894531 -2 2 -2 h 4 c 1.105469 0 2 0.894531 2 2 z m 0 0" fill="#241f31"/>
    <g fill="#424048">
        <path d="m 34 84 h 20 c 1.105469 0 2 0.894531 2 2 v 4 c 0 1.105469 -0.894531 2 -2 2 h -20 c -1.105469 0 -2 -0.894531 -2 -2 v -4 c 0 -1.105469 0.894531 -2 2 -2 z m 0 0"/>
        <path d="m 48 78 v 20 c 0 1.105469 -0.894531 2 -2 2 h -4 c -1.105469 0 -2 -0.894531 -2 -2 v -20 c 0 -1.105469 0.894531 -2 2 -2 h 4 c 1.105469 0 2 0.894531 2 2 z m 0 0"/>
        <path d="m 28 12 h 72 v 48 c 0 4 -4 4 -4 4 h -68 z m 0 0"/>
    </g>
    <path d="m 38 29 c 0 0.550781 -0.449219 1 -1 1 s -1 -0.449219 -1 -1 s 0.449219 -1 1 -1 s 1 0.449219 1 1 z m 0 0" fill="#e01b24"/>
    <path d="m 35 28 c -0.550781 0 -1 0.449219 -1 1 s 0.449219 1 1 1 c 0.175781 0 0.347656 -0.046875 0.5 -0.136719 c -0.308594 -0.175781 -0.5 -0.507812 -0.5 -0.863281 s 0.191406 -0.6875 0.5 -0.867188 c -0.152344 -0.085937 -0.324219 -0.132812 -0.5 -0.132812 z m 0 0" fill="#9a9996"/>
    <path d="m 33 28 c -0.550781 0 -1 0.449219 -1 1 s 0.449219 1 1 1 c 0.175781 0 0.347656 -0.046875 0.5 -0.136719 c -0.308594 -0.175781 -0.5 -0.507812 -0.5 -0.863281 s 0.191406 -0.6875 0.5 -0.867188 c -0.152344 -0.085937 -0.324219 -0.132812 -0.5 -0.132812 z m 0 0" fill="#9a9996"/>
    <path d="m 68 94 v 2 c 0 3.324219 2.675781 6 6 6 s 6 -2.675781 6 -6 v -2 z m 0 0" fill="#a51d2d"/>
    <path d="m 80 94 c 0 3.3125 -2.6875 6 -6 6 s -6 -2.6875 -6 -6 s 2.6875 -6 6 -6 s 6 2.6875 6 6 z m 0 0" fill="#ed333b"/>
    <path d="m 84 86 v 2 c 0 3.324219 2.675781 6 6 6 s 6 -2.675781 6 -6 v -2 z m 0 0" fill="#e35e0d"/>
    <path d="m 96 86 c 0 3.3125 -2.6875 6 -6 6 s -6 -2.6875 -6 -6 s 2.6875 -6 6 -6 s 6 2.6875 6 6 z m 0 0" fill="#fb8c14"/>
    <g clip-path="url(#d)" mask="url(#c)" transform="matrix(1 0 0 1 -8 -16)">
        <path d="m 48 36 h 48 v 36 h -48 z m 0 0" fill="#57e389" fill-opacity="0.508403"/>
    </g>
    <g clip-path="url(#f)" mask="url(#e)" transform="matrix(1 0 0 1 -8 -16)">
        <path d="m 38 78 v -48 h 45.453125 l -8.726563 48 z m 0 0" fill="#ffffff" fill-rule="evenodd"/>
    </g>
</svg>
