<?xml version="1.0" encoding="UTF-8"?>
<svg height="16px" viewBox="0 0 16 16" width="16px" xmlns="http://www.w3.org/2000/svg" xmlns:xlink="http://www.w3.org/1999/xlink">
    <filter id="a" height="100%" width="100%" x="0%" y="0%">
        <feColorMatrix in="SourceGraphic" type="matrix" values="0 0 0 0 1 0 0 0 0 1 0 0 0 0 1 0 0 0 1 0"/>
    </filter>
    <mask id="b">
        <g filter="url(#a)">
            <rect fill-opacity="0.8" height="16" width="16"/>
        </g>
    </mask>
    <clipPath id="c">
        <rect height="152" width="192"/>
    </clipPath>
    <mask id="d">
        <g filter="url(#a)">
            <rect fill-opacity="0.1" height="16" width="16"/>
        </g>
    </mask>
    <clipPath id="e">
        <rect height="152" width="192"/>
    </clipPath>
    <g clip-path="url(#c)" mask="url(#b)" transform="matrix(1 0 0 1 -168 -16)">
        <path d="m 48 36 h 48 v 36 h -48 z m 0 0" fill="#57e389" fill-opacity="0.508403"/>
    </g>
    <g clip-path="url(#e)" mask="url(#d)" transform="matrix(1 0 0 1 -168 -16)">
        <path d="m 38 78 v -48 h 45.453125 l -8.726563 48 z m 0 0" fill="#ffffff" fill-rule="evenodd"/>
    </g>
    <path d="m 3.949219 0 c -1.082031 0.0273438 -1.949219 0.914062 -1.949219 2 v 12 c 0 1.105469 0.894531 2 2 2 h 8 c 1.105469 0 2 -0.894531 2 -2 v -12 c 0 -1.105469 -0.894531 -2 -2 -2 h -8 c -0.015625 0 -0.03125 0 -0.050781 0 z m 0.050781 2 h 8 v 5 h -8 z m 7 7 c 0.550781 0 1 0.449219 1 1 s -0.449219 1 -1 1 s -1 -0.449219 -1 -1 s 0.449219 -1 1 -1 z m -6 0.5 h 1 v 1 h 1 v 1 h -1 v 1 h -1 v -1 h -1 v -1 h 1 z m 4 1.5 c 0.550781 0 1 0.449219 1 1 s -0.449219 1 -1 1 s -1 -0.449219 -1 -1 s 0.449219 -1 1 -1 z m 0 0" fill="#241f31"/>
</svg>
